<svg width="415" height="77" viewBox="0 0 415 77" fill="none" xmlns="http://www.w3.org/2000/svg">
<path d="M15.228 8.45454H19.8217V30.1108C19.8217 32.0696 19.4339 33.745 18.6584 35.1371C17.8928 36.5291 16.8139 37.593 15.4219 38.3288C14.0298 39.0547 12.3991 39.4176 10.5298 39.4176C8.80966 39.4176 7.26349 39.1044 5.89134 38.478C4.52912 37.8516 3.45028 36.9418 2.65483 35.7486C1.86932 34.5455 1.47656 33.0838 1.47656 31.3636H6.0554C6.0554 32.2088 6.24929 32.9396 6.63707 33.5561C7.0348 34.1726 7.5767 34.6548 8.26278 35.0028C8.95881 35.3409 9.75426 35.5099 10.6491 35.5099C11.6236 35.5099 12.4489 35.3061 13.125 34.8984C13.8111 34.4808 14.3331 33.8693 14.6911 33.0639C15.049 32.2585 15.228 31.2741 15.228 30.1108V8.45454ZM32.8386 39.5071C31.3869 39.5071 30.0744 39.2386 28.9011 38.7017C27.7278 38.1548 26.7981 37.3643 26.112 36.3303C25.4359 35.2962 25.0978 34.0284 25.0978 32.527C25.0978 31.2344 25.3464 30.1705 25.8436 29.3352C26.3407 28.5 27.0119 27.8388 27.8571 27.3516C28.7022 26.8643 29.6468 26.4964 30.6909 26.2479C31.7349 25.9993 32.7988 25.8104 33.8826 25.6811C35.2548 25.522 36.3684 25.3928 37.2235 25.2933C38.0787 25.1839 38.7001 25.0099 39.0879 24.7713C39.4757 24.5327 39.6696 24.1449 39.6696 23.608V23.5036C39.6696 22.201 39.3017 21.1918 38.5659 20.4759C37.84 19.7599 36.7562 19.402 35.3145 19.402C33.813 19.402 32.6298 19.7351 31.7647 20.4013C30.9096 21.0575 30.318 21.7884 29.9899 22.5938L25.7988 21.6392C26.296 20.2472 27.0218 19.1236 27.9764 18.2685C28.9409 17.4034 30.0495 16.777 31.3024 16.3892C32.5552 15.9915 33.8727 15.7926 35.2548 15.7926C36.1696 15.7926 37.139 15.902 38.1632 16.1207C39.1973 16.3295 40.1618 16.7173 41.0566 17.2841C41.9615 17.8509 42.7022 18.6612 43.2789 19.7152C43.8556 20.7592 44.144 22.1165 44.144 23.7869V39H39.7889V35.8679H39.6099C39.3216 36.4446 38.889 37.0114 38.3123 37.5682C37.7356 38.125 36.9949 38.5874 36.09 38.9553C35.1852 39.3232 34.1014 39.5071 32.8386 39.5071ZM33.8081 35.9276C35.041 35.9276 36.095 35.6839 36.97 35.1967C37.8549 34.7095 38.5261 34.0732 38.9835 33.2876C39.4508 32.4922 39.6845 31.642 39.6845 30.7372V27.7841C39.5254 27.9432 39.2172 28.0923 38.7598 28.2315C38.3123 28.3608 37.8002 28.4751 37.2235 28.5746C36.6468 28.6641 36.0851 28.7486 35.5382 28.8281C34.9913 28.8977 34.5339 28.9574 34.166 29.0071C33.301 29.1165 32.5105 29.3004 31.7946 29.5589C31.0886 29.8175 30.5218 30.1903 30.0943 30.6776C29.6767 31.1548 29.4679 31.7912 29.4679 32.5866C29.4679 33.6903 29.8755 34.5256 30.6909 35.0923C31.5062 35.6491 32.5453 35.9276 33.8081 35.9276ZM59.7337 39.4624C57.5163 39.4624 55.6072 38.9602 54.0064 37.956C52.4155 36.9418 51.1925 35.5447 50.3374 33.7649C49.4822 31.9851 49.0547 29.9467 49.0547 27.6499C49.0547 25.3232 49.4922 23.2699 50.3672 21.4901C51.2422 19.7003 52.4751 18.3033 54.0661 17.299C55.657 16.2947 57.5313 15.7926 59.6889 15.7926C61.429 15.7926 62.9801 16.1158 64.3423 16.7621C65.7045 17.3984 66.8033 18.2933 67.6385 19.4467C68.4837 20.6001 68.9858 21.9474 69.1449 23.4886H64.8047C64.5661 22.4148 64.0192 21.4901 63.1641 20.7145C62.3189 19.9389 61.1854 19.5511 59.7635 19.5511C58.5206 19.5511 57.4318 19.8793 56.4972 20.5355C55.5724 21.1818 54.8516 22.1065 54.3345 23.3097C53.8175 24.5028 53.5589 25.9148 53.5589 27.5455C53.5589 29.2159 53.8125 30.6577 54.3196 31.8707C54.8267 33.0838 55.5426 34.0234 56.4673 34.6896C57.402 35.3558 58.5007 35.6889 59.7635 35.6889C60.6087 35.6889 61.3743 35.5348 62.0604 35.2266C62.7564 34.9084 63.3381 34.456 63.8054 33.8693C64.2827 33.2827 64.6158 32.5767 64.8047 31.7514H69.1449C68.9858 33.233 68.5036 34.5554 67.6982 35.7188C66.8928 36.8821 65.8139 37.7969 64.4616 38.4631C63.1193 39.1293 61.5433 39.4624 59.7337 39.4624ZM89.3805 47.5909V35.4354H89.112C88.8436 35.9226 88.4558 36.4794 87.9487 37.1058C87.4515 37.7322 86.7654 38.2791 85.8904 38.7464C85.0154 39.2138 83.8819 39.4474 82.4899 39.4474C80.6404 39.4474 78.9899 38.9751 77.5382 38.0305C76.0964 37.076 74.9629 35.7187 74.1376 33.9588C73.3223 32.1889 72.9146 30.0661 72.9146 27.5902C72.9146 25.1143 73.3272 22.9964 74.1525 21.2365C74.9877 19.4766 76.1312 18.1293 77.5829 17.1946C79.0346 16.2599 80.6802 15.7926 82.5197 15.7926C83.9416 15.7926 85.085 16.0312 85.9501 16.5085C86.8251 16.9759 87.5012 17.5227 87.9785 18.1491C88.4657 18.7756 88.8436 19.3274 89.112 19.8047H89.4849V16.0909H93.84V47.5909H89.3805ZM83.4743 35.6442C84.7569 35.6442 85.8407 35.3061 86.7257 34.63C87.6206 33.9439 88.2967 32.9943 88.7541 31.7812C89.2214 30.5682 89.4551 29.1562 89.4551 27.5455C89.4551 25.9545 89.2264 24.5625 88.769 23.3693C88.3116 22.1761 87.6404 21.2464 86.7555 20.5803C85.8706 19.9141 84.7768 19.581 83.4743 19.581C82.1319 19.581 81.0133 19.929 80.1184 20.625C79.2235 21.321 78.5474 22.2706 78.09 23.4737C77.6426 24.6768 77.4189 26.0341 77.4189 27.5455C77.4189 29.0767 77.6475 30.4538 78.1049 31.6768C78.5623 32.8999 79.2385 33.8693 80.1333 34.5852C81.0382 35.2912 82.1518 35.6442 83.4743 35.6442ZM114.348 29.4993V16.0909H118.822V39H114.437V35.0327H114.199C113.672 36.2557 112.827 37.2749 111.663 38.0902C110.51 38.8956 109.073 39.2983 107.353 39.2983C105.881 39.2983 104.579 38.9751 103.445 38.3288C102.322 37.6726 101.437 36.7031 100.79 35.4205C100.154 34.1378 99.8358 32.5518 99.8358 30.6626V16.0909H104.295V30.1257C104.295 31.6868 104.728 32.9297 105.593 33.8544C106.458 34.7791 107.581 35.2415 108.964 35.2415C109.799 35.2415 110.629 35.0327 111.454 34.6151C112.29 34.1974 112.981 33.5661 113.528 32.7209C114.084 31.8757 114.358 30.8018 114.348 29.4993ZM134.688 39.4624C132.431 39.4624 130.487 38.9801 128.856 38.0156C127.235 37.0412 125.983 35.674 125.098 33.9141C124.223 32.1442 123.785 30.071 123.785 27.6946C123.785 25.348 124.223 23.2798 125.098 21.4901C125.983 19.7003 127.216 18.3033 128.797 17.299C130.387 16.2947 132.247 15.7926 134.375 15.7926C135.667 15.7926 136.92 16.0064 138.133 16.4339C139.346 16.8615 140.435 17.5327 141.4 18.4474C142.364 19.3622 143.125 20.5504 143.681 22.0121C144.238 23.4638 144.517 25.2287 144.517 27.3068V28.8878H126.306V25.5469H140.147C140.147 24.3736 139.908 23.3345 139.431 22.4297C138.953 21.5149 138.282 20.794 137.417 20.267C136.562 19.7401 135.558 19.4766 134.404 19.4766C133.152 19.4766 132.058 19.7848 131.123 20.4013C130.199 21.0078 129.483 21.8033 128.975 22.7876C128.478 23.7621 128.23 24.821 128.23 25.9645V28.5746C128.23 30.1058 128.498 31.4084 129.035 32.4822C129.582 33.5561 130.343 34.3764 131.317 34.9432C132.292 35.5 133.43 35.7784 134.733 35.7784C135.578 35.7784 136.348 35.6591 137.044 35.4205C137.74 35.1719 138.342 34.804 138.849 34.3168C139.356 33.8295 139.744 33.228 140.012 32.5121L144.233 33.2727C143.895 34.5156 143.289 35.6044 142.414 36.5391C141.549 37.4638 140.46 38.1847 139.147 38.7017C137.845 39.2088 136.358 39.4624 134.688 39.4624ZM166.632 21.6839L162.59 22.3999C162.421 21.8828 162.152 21.3906 161.784 20.9233C161.426 20.456 160.939 20.0732 160.323 19.7749C159.706 19.4766 158.936 19.3274 158.011 19.3274C156.748 19.3274 155.694 19.6108 154.849 20.1776C154.004 20.7344 153.581 21.4553 153.581 22.3402C153.581 23.1058 153.865 23.7223 154.431 24.1896C154.998 24.657 155.913 25.0398 157.176 25.3381L160.815 26.1733C162.923 26.6605 164.494 27.4112 165.528 28.4254C166.562 29.4396 167.079 30.7571 167.079 32.3778C167.079 33.75 166.681 34.973 165.886 36.0469C165.1 37.1108 164.002 37.946 162.59 38.5526C161.188 39.1591 159.562 39.4624 157.713 39.4624C155.147 39.4624 153.054 38.9155 151.433 37.8217C149.813 36.718 148.818 35.152 148.45 33.1236L152.761 32.4673C153.029 33.5909 153.581 34.4411 154.416 35.0178C155.252 35.5845 156.34 35.8679 157.683 35.8679C159.144 35.8679 160.313 35.5646 161.188 34.9581C162.063 34.3416 162.5 33.5909 162.5 32.706C162.5 31.9901 162.232 31.3885 161.695 30.9013C161.168 30.4141 160.357 30.0462 159.264 29.7976L155.386 28.9474C153.248 28.4602 151.667 27.6847 150.643 26.6207C149.629 25.5568 149.122 24.2095 149.122 22.5788C149.122 21.2266 149.499 20.0433 150.255 19.0291C151.011 18.0149 152.055 17.2244 153.387 16.6577C154.72 16.081 156.246 15.7926 157.966 15.7926C160.442 15.7926 162.391 16.3295 163.813 17.4034C165.235 18.4673 166.174 19.8942 166.632 21.6839ZM208.825 18.3878H204.172C203.993 17.3935 203.66 16.5185 203.173 15.7628C202.686 15.0071 202.089 14.3658 201.383 13.8388C200.677 13.3118 199.887 12.9141 199.012 12.6456C198.146 12.3771 197.227 12.2429 196.252 12.2429C194.492 12.2429 192.916 12.6854 191.524 13.5703C190.142 14.4553 189.048 15.7528 188.243 17.4631C187.448 19.1733 187.05 21.2614 187.05 23.7273C187.05 26.2131 187.448 28.3111 188.243 30.0213C189.048 31.7315 190.147 33.0241 191.539 33.8991C192.931 34.7741 194.497 35.2116 196.237 35.2116C197.202 35.2116 198.117 35.0824 198.982 34.8239C199.857 34.5554 200.647 34.1626 201.353 33.6456C202.059 33.1286 202.656 32.4972 203.143 31.7514C203.64 30.9957 203.983 30.1307 204.172 29.1562L208.825 29.1712C208.577 30.6726 208.095 32.0547 207.379 33.3175C206.673 34.5703 205.763 35.6541 204.649 36.5689C203.546 37.4737 202.283 38.1747 200.861 38.6719C199.439 39.169 197.888 39.4176 196.208 39.4176C193.563 39.4176 191.206 38.7912 189.138 37.5384C187.07 36.2756 185.439 34.4709 184.246 32.1243C183.063 29.7777 182.471 26.9787 182.471 23.7273C182.471 20.4659 183.068 17.6669 184.261 15.3303C185.454 12.9837 187.085 11.1839 189.153 9.93111C191.221 8.66832 193.573 8.03693 196.208 8.03693C197.828 8.03693 199.34 8.2706 200.742 8.73793C202.154 9.19531 203.421 9.87145 204.545 10.7663C205.669 11.6513 206.598 12.7351 207.334 14.0178C208.07 15.2905 208.567 16.7472 208.825 18.3878ZM223.632 39.4624C221.484 39.4624 219.61 38.9702 218.009 37.9858C216.408 37.0014 215.165 35.6243 214.281 33.8544C213.396 32.0845 212.953 30.0163 212.953 27.6499C212.953 25.2734 213.396 23.1953 214.281 21.4155C215.165 19.6357 216.408 18.2536 218.009 17.2692C219.61 16.2848 221.484 15.7926 223.632 15.7926C225.78 15.7926 227.654 16.2848 229.255 17.2692C230.856 18.2536 232.099 19.6357 232.984 21.4155C233.869 23.1953 234.311 25.2734 234.311 27.6499C234.311 30.0163 233.869 32.0845 232.984 33.8544C232.099 35.6243 230.856 37.0014 229.255 37.9858C227.654 38.9702 225.78 39.4624 223.632 39.4624ZM223.647 35.7188C225.039 35.7188 226.192 35.3509 227.107 34.6151C228.022 33.8793 228.698 32.8999 229.136 31.6768C229.583 30.4538 229.807 29.1065 229.807 27.6349C229.807 26.1733 229.583 24.831 229.136 23.608C228.698 22.375 228.022 21.3857 227.107 20.6399C226.192 19.8942 225.039 19.5213 223.647 19.5213C222.245 19.5213 221.082 19.8942 220.157 20.6399C219.242 21.3857 218.561 22.375 218.114 23.608C217.676 24.831 217.457 26.1733 217.457 27.6349C217.457 29.1065 217.676 30.4538 218.114 31.6768C218.561 32.8999 219.242 33.8793 220.157 34.6151C221.082 35.3509 222.245 35.7188 223.647 35.7188ZM253.801 29.4993V16.0909H258.275V39H253.89V35.0327H253.652C253.125 36.2557 252.28 37.2749 251.116 38.0902C249.963 38.8956 248.526 39.2983 246.806 39.2983C245.334 39.2983 244.032 38.9751 242.898 38.3288C241.775 37.6726 240.89 36.7031 240.243 35.4205C239.607 34.1378 239.289 32.5518 239.289 30.6626V16.0909H243.748V30.1257C243.748 31.6868 244.181 32.9297 245.046 33.8544C245.911 34.7791 247.035 35.2415 248.417 35.2415C249.252 35.2415 250.082 35.0327 250.907 34.6151C251.743 34.1974 252.434 33.5661 252.981 32.7209C253.537 31.8757 253.811 30.8018 253.801 29.4993ZM281.434 21.6839L277.392 22.3999C277.223 21.8828 276.955 21.3906 276.587 20.9233C276.229 20.456 275.742 20.0732 275.125 19.7749C274.509 19.4766 273.738 19.3274 272.814 19.3274C271.551 19.3274 270.497 19.6108 269.652 20.1776C268.806 20.7344 268.384 21.4553 268.384 22.3402C268.384 23.1058 268.667 23.7223 269.234 24.1896C269.801 24.657 270.716 25.0398 271.978 25.3381L275.618 26.1733C277.725 26.6605 279.297 27.4112 280.331 28.4254C281.365 29.4396 281.882 30.7571 281.882 32.3778C281.882 33.75 281.484 34.973 280.689 36.0469C279.903 37.1108 278.804 37.946 277.392 38.5526C275.99 39.1591 274.365 39.4624 272.515 39.4624C269.95 39.4624 267.857 38.9155 266.236 37.8217C264.615 36.718 263.621 35.152 263.253 33.1236L267.564 32.4673C267.832 33.5909 268.384 34.4411 269.219 35.0178C270.054 35.5845 271.143 35.8679 272.485 35.8679C273.947 35.8679 275.115 35.5646 275.99 34.9581C276.865 34.3416 277.303 33.5909 277.303 32.706C277.303 31.9901 277.034 31.3885 276.498 30.9013C275.971 30.4141 275.16 30.0462 274.066 29.7976L270.189 28.9474C268.051 28.4602 266.47 27.6847 265.446 26.6207C264.431 25.5568 263.924 24.2095 263.924 22.5788C263.924 21.2266 264.302 20.0433 265.058 19.0291C265.814 18.0149 266.858 17.2244 268.19 16.6577C269.522 16.081 271.049 15.7926 272.769 15.7926C275.245 15.7926 277.194 16.3295 278.615 17.4034C280.037 18.4673 280.977 19.8942 281.434 21.6839ZM297.479 16.0909V19.6705H284.965V16.0909H297.479ZM288.321 10.6023H292.781V32.2734C292.781 33.1385 292.91 33.7898 293.169 34.2273C293.427 34.6548 293.76 34.9482 294.168 35.1072C294.585 35.2564 295.038 35.331 295.525 35.331C295.883 35.331 296.196 35.3061 296.465 35.2564C296.733 35.2067 296.942 35.1669 297.091 35.1371L297.896 38.821C297.638 38.9205 297.27 39.0199 296.793 39.1193C296.316 39.2287 295.719 39.2884 295.003 39.2983C293.83 39.3182 292.736 39.1094 291.722 38.6719C290.708 38.2344 289.887 37.5582 289.261 36.6435C288.634 35.7287 288.321 34.5803 288.321 33.1982V10.6023ZM312.039 39.4624C309.782 39.4624 307.838 38.9801 306.208 38.0156C304.587 37.0412 303.334 35.674 302.449 33.9141C301.574 32.1442 301.137 30.071 301.137 27.6946C301.137 25.348 301.574 23.2798 302.449 21.4901C303.334 19.7003 304.567 18.3033 306.148 17.299C307.739 16.2947 309.598 15.7926 311.726 15.7926C313.019 15.7926 314.272 16.0064 315.485 16.4339C316.698 16.8615 317.787 17.5327 318.751 18.4474C319.716 19.3622 320.476 20.5504 321.033 22.0121C321.59 23.4638 321.868 25.2287 321.868 27.3068V28.8878H303.657V25.5469H317.498C317.498 24.3736 317.26 23.3345 316.782 22.4297C316.305 21.5149 315.634 20.794 314.769 20.267C313.914 19.7401 312.909 19.4766 311.756 19.4766C310.503 19.4766 309.409 19.7848 308.475 20.4013C307.55 21.0078 306.834 21.8033 306.327 22.7876C305.83 23.7621 305.581 24.821 305.581 25.9645V28.5746C305.581 30.1058 305.85 31.4084 306.387 32.4822C306.934 33.5561 307.694 34.3764 308.669 34.9432C309.643 35.5 310.782 35.7784 312.084 35.7784C312.929 35.7784 313.7 35.6591 314.396 35.4205C315.092 35.1719 315.694 34.804 316.201 34.3168C316.708 33.8295 317.096 33.228 317.364 32.5121L321.585 33.2727C321.247 34.5156 320.64 35.6044 319.765 36.5391C318.9 37.4638 317.811 38.1847 316.499 38.7017C315.196 39.2088 313.71 39.4624 312.039 39.4624ZM333.483 39.5071C332.031 39.5071 330.719 39.2386 329.546 38.7017C328.372 38.1548 327.443 37.3643 326.757 36.3303C326.08 35.2962 325.742 34.0284 325.742 32.527C325.742 31.2344 325.991 30.1705 326.488 29.3352C326.985 28.5 327.656 27.8388 328.502 27.3516C329.347 26.8643 330.291 26.4964 331.335 26.2479C332.379 25.9993 333.443 25.8104 334.527 25.6811C335.899 25.522 337.013 25.3928 337.868 25.2933C338.723 25.1839 339.345 25.0099 339.732 24.7713C340.12 24.5327 340.314 24.1449 340.314 23.608V23.5036C340.314 22.201 339.946 21.1918 339.21 20.4759C338.485 19.7599 337.401 19.402 335.959 19.402C334.458 19.402 333.274 19.7351 332.409 20.4013C331.554 21.0575 330.963 21.7884 330.634 22.5938L326.443 21.6392C326.941 20.2472 327.666 19.1236 328.621 18.2685C329.585 17.4034 330.694 16.777 331.947 16.3892C333.2 15.9915 334.517 15.7926 335.899 15.7926C336.814 15.7926 337.784 15.902 338.808 16.1207C339.842 16.3295 340.806 16.7173 341.701 17.2841C342.606 17.8509 343.347 18.6612 343.923 19.7152C344.5 20.7592 344.789 22.1165 344.789 23.7869V39H340.433V35.8679H340.254C339.966 36.4446 339.534 37.0114 338.957 37.5682C338.38 38.125 337.639 38.5874 336.735 38.9553C335.83 39.3232 334.746 39.5071 333.483 39.5071ZM334.453 35.9276C335.686 35.9276 336.74 35.6839 337.615 35.1967C338.499 34.7095 339.171 34.0732 339.628 33.2876C340.095 32.4922 340.329 31.642 340.329 30.7372V27.7841C340.17 27.9432 339.862 28.0923 339.404 28.2315C338.957 28.3608 338.445 28.4751 337.868 28.5746C337.291 28.6641 336.73 28.7486 336.183 28.8281C335.636 28.8977 335.178 28.9574 334.811 29.0071C333.945 29.1165 333.155 29.3004 332.439 29.5589C331.733 29.8175 331.166 30.1903 330.739 30.6776C330.321 31.1548 330.112 31.7912 330.112 32.5866C330.112 33.6903 330.52 34.5256 331.335 35.0923C332.151 35.6491 333.19 35.9276 334.453 35.9276ZM365.24 29.4993V16.0909H369.715V39H365.33V35.0327H365.091C364.564 36.2557 363.719 37.2749 362.556 38.0902C361.402 38.8956 359.966 39.2983 358.245 39.2983C356.774 39.2983 355.471 38.9751 354.338 38.3288C353.214 37.6726 352.329 36.7031 351.683 35.4205C351.047 34.1378 350.728 32.5518 350.728 30.6626V16.0909H355.188V30.1257C355.188 31.6868 355.62 32.9297 356.485 33.8544C357.35 34.7791 358.474 35.2415 359.856 35.2415C360.691 35.2415 361.522 35.0327 362.347 34.6151C363.182 34.1974 363.873 33.5661 364.42 32.7209C364.977 31.8757 365.25 30.8018 365.24 29.4993Z" fill="white"/>
<path d="M1.58523 73H9.58807V71.5938H3.17045V67.1449H9.0767V65.7386H3.17045V61.3153H9.4858V59.9091H1.58523V73ZM13.2635 63.1818H11.5249L14.6442 68.0909L11.5249 73H13.2635L15.6158 69.1903L17.968 73H19.7067L16.5362 68.0909L19.7067 63.1818H17.968L15.6158 67.196L13.2635 63.1818ZM21.8592 76.6818H23.3677V71.4915H23.4956C23.8279 72.0284 24.4672 73.2045 26.3592 73.2045C28.8137 73.2045 30.5268 71.2358 30.5268 68.1165C30.5268 65.0227 28.8137 63.054 26.3336 63.054C24.416 63.054 23.8279 64.2301 23.4956 64.7415H23.3166V63.1818H21.8592V76.6818ZM23.3422 68.0909C23.3422 65.892 24.3137 64.4091 26.1547 64.4091C28.0723 64.4091 29.0183 66.0199 29.0183 68.0909C29.0183 70.1875 28.0467 71.8494 26.1547 71.8494C24.3393 71.8494 23.3422 70.3153 23.3422 68.0909ZM34.3365 59.9091H32.8279V73H34.3365V59.9091ZM41.0881 73.2045C43.7472 73.2045 45.5369 71.1847 45.5369 68.142C45.5369 65.0739 43.7472 63.054 41.0881 63.054C38.429 63.054 36.6392 65.0739 36.6392 68.142C36.6392 71.1847 38.429 73.2045 41.0881 73.2045ZM41.0881 71.8494C39.0682 71.8494 38.1477 70.1108 38.1477 68.142C38.1477 66.1733 39.0682 64.4091 41.0881 64.4091C43.108 64.4091 44.0284 66.1733 44.0284 68.142C44.0284 70.1108 43.108 71.8494 41.0881 71.8494ZM47.8397 73H49.3482V66.7869C49.3482 65.4574 50.3965 64.4858 51.8283 64.4858C52.231 64.4858 52.6465 64.5625 52.7488 64.5881V63.054C52.5762 63.0412 52.1799 63.0284 51.9561 63.0284C50.78 63.0284 49.7573 63.6932 49.3993 64.6648H49.2971V63.1818H47.8397V73ZM58.3546 73.2045C60.3489 73.2045 61.8063 72.2074 62.2665 70.7244L60.8091 70.3153C60.4256 71.3381 59.5371 71.8494 58.3546 71.8494C56.584 71.8494 55.3631 70.7053 55.2928 68.6023H62.4199V67.9631C62.4199 64.3068 60.2466 63.054 58.2012 63.054C55.5421 63.054 53.7779 65.1506 53.7779 68.1676C53.7779 71.1847 55.5165 73.2045 58.3546 73.2045ZM55.2928 67.2983C55.3951 65.7706 56.4753 64.4091 58.2012 64.4091C59.8375 64.4091 60.8858 65.6364 60.8858 67.2983H55.2928ZM64.7147 73H66.2232V66.7869C66.2232 65.4574 67.2715 64.4858 68.7033 64.4858C69.106 64.4858 69.5215 64.5625 69.6238 64.5881V63.054C69.4512 63.0412 69.0549 63.0284 68.8311 63.0284C67.655 63.0284 66.6323 63.6932 66.2743 64.6648H66.1721V63.1818H64.7147V73Z" fill="white"/>
<rect x="391.5" y="15.5" width="23" height="23" stroke="white"/>
<path d="M408 23.3283L400.604 30.7666L399.283 29.4194L406.66 22L408 23.3283ZM398 32L399.962 31.4118L398.585 30.0835L398 32Z" fill="white"/>
</svg>
